<svg width="16" height="16" viewBox="0 0 16 16" fill="none" xmlns="http://www.w3.org/2000/svg">
<path d="M11.2493 3.04258H11.2493C11.6807 3.04258 12.0944 3.21395 12.3995 3.51899C12.7045 3.82402 12.8759 4.23774 12.8759 4.66913V4.66914C12.8759 5.10053 12.7045 5.51425 12.3995 5.81929C12.0944 6.12433 11.6807 6.2957 11.2493 6.2957H9.62274V4.66914C9.62274 4.23775 9.79411 3.82403 10.0991 3.51899C10.4042 3.21395 10.8179 3.04258 11.2493 3.04258V3.04258Z" stroke="#FF4B00" stroke-width="1.39419" stroke-linecap="round" stroke-linejoin="round"/>
<path d="M6.83435 6.2957H5.20779C4.7764 6.2957 4.36268 6.12433 4.05764 5.81929C3.7526 5.51425 3.58123 5.10053 3.58123 4.66914V4.66913C3.58123 4.23774 3.7526 3.82402 4.05764 3.51898C4.36268 3.21394 4.7764 3.04258 5.20779 3.04258H5.20779C5.63918 3.04258 6.0529 3.21395 6.35794 3.51898C6.66298 3.82402 6.83435 4.23775 6.83435 4.66914V6.2957Z" stroke="#FF4B00" stroke-width="1.39419" stroke-linecap="round" stroke-linejoin="round"/>
<path d="M9.62274 9.08408H11.2493C11.6807 9.08408 12.0944 9.25545 12.3995 9.56049C12.7045 9.86553 12.8759 10.2793 12.8759 10.7106V10.7106C12.8759 11.142 12.7045 11.5558 12.3995 11.8608C12.0944 12.1658 11.6807 12.3372 11.2493 12.3372H11.2493C10.8179 12.3372 10.4042 12.1658 10.0991 11.8608C9.79411 11.5558 9.62274 11.142 9.62274 10.7106V9.08408Z" stroke="#FF4B00" stroke-width="1.39419" stroke-linecap="round" stroke-linejoin="round"/>
<path d="M5.20779 12.3372H5.20779C4.7764 12.3372 4.36268 12.1658 4.05764 11.8608C3.7526 11.5558 3.58123 11.142 3.58123 10.7106V10.7106C3.58123 10.2793 3.7526 9.86553 4.05764 9.56049C4.36268 9.25545 4.7764 9.08408 5.20779 9.08408H6.83435V10.7106C6.83435 11.142 6.66298 11.5558 6.35794 11.8608C6.0529 12.1658 5.63918 12.3372 5.20779 12.3372V12.3372Z" stroke="#FF4B00" stroke-width="1.39419" stroke-linecap="round" stroke-linejoin="round"/>
<path d="M9.62274 6.2957H6.83435V9.08408H9.62274V6.2957Z" stroke="#FF4B00" stroke-width="1.39419" stroke-linecap="round" stroke-linejoin="round"/>
</svg>
