<svg width="17" height="17" viewBox="0 0 17 17" fill="none" xmlns="http://www.w3.org/2000/svg">
<path fill-rule="evenodd" clip-rule="evenodd" d="M5.90622 13.3566H3.08933C2.59679 13.3566 2.19751 12.9573 2.19751 12.4648V11.8828C2.19751 11.5459 2.33136 11.2227 2.56961 10.9845C3.18509 10.369 3.53086 9.53424 3.53086 8.66382V6.68986C3.53086 4.1125 5.62023 2.02313 8.19759 2.02313C10.775 2.02313 12.8643 4.1125 12.8643 6.68986V8.66382C12.8643 9.53424 13.2101 10.369 13.8256 10.9845C14.0638 11.2227 14.1977 11.5459 14.1977 11.8828V12.4648C14.1977 12.9573 13.7984 13.3566 13.3059 13.3566H10.489C10.489 13.5943 10.4812 14.0475 10.2422 14.4815C9.84655 15.1997 9.08 15.69 8.19759 15.69C7.31511 15.69 6.5486 15.1997 6.15297 14.4815C5.91392 14.0475 5.90622 13.5943 5.90622 13.3566ZM13.1185 11.6916C13.1692 11.7423 13.1977 11.8111 13.1977 11.8828V12.3566H3.19752V11.8828C3.19752 11.8111 3.22601 11.7423 3.27672 11.6916C4.07974 10.8886 4.53088 9.79944 4.53088 8.66382V6.68986C4.53088 4.66479 6.17252 3.02315 8.19759 3.02315C10.2227 3.02315 11.8643 4.66479 11.8643 6.68986V8.66382C11.8643 9.79944 12.3154 10.8886 13.1185 11.6916ZM9.48894 13.3566H6.90624C6.90624 13.578 6.92211 13.8052 7.02891 13.999C7.10338 14.1343 7.20071 14.2552 7.31565 14.3566C7.55065 14.5641 7.85945 14.69 8.19759 14.69C8.53573 14.69 8.84447 14.5641 9.07954 14.3566C9.19447 14.2552 9.29174 14.1343 9.36627 13.999C9.47308 13.8052 9.48894 13.578 9.48894 13.3566Z" fill="black"/>
<circle cx="12.1977" cy="4.02316" r="2.33337" fill="#D34645" stroke="white" stroke-width="0.666676"/>
</svg>
