<svg width="17" height="16" viewBox="0 0 17 16" fill="none" xmlns="http://www.w3.org/2000/svg">
<path d="M8.50218 9.24187C8.23573 9.24597 7.96109 9.21318 7.67826 9.14349C7.39952 9.06971 7.09209 8.95698 6.75596 8.80532L0.681094 6.02613C0.459742 5.93185 0.291679 5.79453 0.176905 5.61417C0.0662288 5.42971 0.010891 5.235 0.010891 5.03005C0.010891 4.82509 0.0662288 4.63243 0.176905 4.45207C0.291679 4.27171 0.459742 4.13234 0.681094 4.03396L6.75596 1.25477C7.09209 1.10721 7.39952 0.998581 7.67826 0.928896C7.96109 0.855113 8.23573 0.82027 8.50218 0.824369C8.76862 0.82027 9.04326 0.855113 9.32609 0.928896C9.60893 0.998581 9.91841 1.10721 10.2545 1.25477L16.3294 4.03396C16.5508 4.13234 16.7168 4.27171 16.8274 4.45207C16.9422 4.63243 16.9996 4.82509 16.9996 5.03005C16.9996 5.235 16.9422 5.42971 16.8274 5.61417C16.7168 5.79453 16.5508 5.93185 16.3294 6.02613L10.2545 8.80532C9.91841 8.95698 9.60893 9.06971 9.32609 9.14349C9.04326 9.21318 8.76862 9.24597 8.50218 9.24187ZM8.50218 8.05518C8.69893 8.05518 8.89774 8.02854 9.09859 7.97525C9.30355 7.91786 9.53515 7.83178 9.79339 7.717L15.2841 5.22065C15.3784 5.17556 15.4256 5.11203 15.4256 5.03005C15.4256 4.95216 15.3784 4.89068 15.2841 4.84559L9.79339 2.34923C9.53515 2.23036 9.30355 2.14428 9.09859 2.09099C8.89774 2.0377 8.69893 2.01106 8.50218 2.01106C8.30542 2.01106 8.10661 2.0377 7.90576 2.09099C7.7049 2.14428 7.47535 2.23036 7.21711 2.34923L1.72636 4.84559C1.63208 4.89068 1.58495 4.95216 1.58495 5.03005C1.58495 5.11203 1.63208 5.17556 1.72636 5.22065L7.21711 7.717C7.47535 7.83178 7.7049 7.91786 7.90576 7.97525C8.10661 8.02854 8.30542 8.05518 8.50218 8.05518ZM2.42731 9.59849V6.38275H3.6017V9.59849C3.6017 9.91002 3.71648 10.2113 3.94603 10.5023C4.17967 10.7893 4.5117 11.0455 4.94211 11.2709C5.37251 11.4923 5.889 11.6685 6.49157 11.7997C7.09413 11.935 7.76434 12.0026 8.50218 12.0026C9.24411 12.0026 9.91431 11.935 10.5128 11.7997C11.1154 11.6685 11.6318 11.4923 12.0622 11.2709C12.4967 11.0455 12.8288 10.7893 13.0583 10.5023C13.292 10.2113 13.4088 9.91002 13.4088 9.59849V6.38275H14.5832V9.59849C14.5832 10.0863 14.4356 10.5433 14.1405 10.9696C13.8495 11.3918 13.4354 11.7628 12.8985 12.0825C12.3615 12.4064 11.72 12.6585 10.9739 12.8388C10.2279 13.0192 9.40398 13.1094 8.50218 13.1094C7.60037 13.1094 6.77645 13.0192 6.03042 12.8388C5.28848 12.6585 4.64697 12.4064 4.10589 12.0825C3.56891 11.7628 3.1549 11.3918 2.86386 10.9696C2.57283 10.5433 2.42731 10.0863 2.42731 9.59849ZM8.52062 5.81092C8.29107 5.81092 8.06972 5.77813 7.85657 5.71255C7.64751 5.64286 7.47535 5.55063 7.34008 5.43586C7.20891 5.31698 7.14332 5.18171 7.14332 5.03005C7.14332 4.88248 7.20891 4.75131 7.34008 4.63653C7.47535 4.52176 7.64751 4.43158 7.85657 4.36599C8.06972 4.30041 8.29107 4.26761 8.52062 4.26761C8.75427 4.26761 8.97562 4.30041 9.18468 4.36599C9.39783 4.43158 9.56999 4.52176 9.70116 4.63653C9.83233 4.75131 9.89792 4.88248 9.89792 5.03005C9.89792 5.18171 9.83233 5.31698 9.70116 5.43586C9.56999 5.55063 9.39988 5.64286 9.19082 5.71255C8.98177 5.77813 8.75837 5.81092 8.52062 5.81092ZM4.94211 7.30505L4.03826 6.82545L7.99184 4.77795L8.39765 5.49119L4.94211 7.30505ZM4.03826 13.3123V6.85005L4.94211 7.30505V13.3184L4.03826 13.3123ZM3.49717 13.4598C3.49717 13.2016 3.57506 12.9925 3.73082 12.8327C3.89069 12.6769 4.10179 12.599 4.36413 12.599H4.61008C4.86832 12.599 5.07533 12.6769 5.23109 12.8327C5.39096 12.9925 5.47089 13.2016 5.47089 13.4598V15.1077C5.47089 15.37 5.39096 15.5791 5.23109 15.7348C5.07533 15.8947 4.86832 15.9746 4.61008 15.9746H4.36413C4.10179 15.9746 3.89069 15.8947 3.73082 15.7348C3.57506 15.5791 3.49717 15.37 3.49717 15.1077V13.4598Z" fill="#727272"/>
</svg>
