<svg width="19" height="19" viewBox="0 0 19 19" fill="none" xmlns="http://www.w3.org/2000/svg">
<path d="M6.99326 10.8148H11.4906" stroke="white" stroke-width="1.34919" stroke-linecap="round" stroke-linejoin="round"/>
<path d="M6.99326 8.56616H11.4906" stroke="white" stroke-width="1.34919" stroke-linecap="round" stroke-linejoin="round"/>
<path d="M11.4907 2.94453H14.3014C14.4505 2.94453 14.5934 3.00376 14.6989 3.10919C14.8043 3.21461 14.8635 3.3576 14.8635 3.5067V15.3121C14.8635 15.4612 14.8043 15.6042 14.6989 15.7096C14.5934 15.815 14.4505 15.8743 14.3014 15.8743H4.18245C4.03335 15.8743 3.89036 15.815 3.78494 15.7096C3.67951 15.6042 3.62028 15.4612 3.62028 15.3121V3.5067C3.62028 3.3576 3.67951 3.21461 3.78494 3.10919C3.89036 3.00376 4.03335 2.94453 4.18245 2.94453H6.9931" stroke="white" stroke-width="1.34919" stroke-linecap="round" stroke-linejoin="round"/>
<path d="M6.4311 5.19319V4.63103C6.4311 3.88556 6.72723 3.17062 7.25436 2.64349C7.78149 2.11636 8.49643 1.82022 9.24191 1.82022C9.98738 1.82022 10.7023 2.11636 11.2294 2.64349C11.7566 3.17062 12.0527 3.88556 12.0527 4.63103V5.19319H6.4311Z" stroke="white" stroke-width="1.34919" stroke-linecap="round" stroke-linejoin="round"/>
</svg>
