<svg width="15" height="12" viewBox="0 0 15 12" fill="none" xmlns="http://www.w3.org/2000/svg">
<path d="M2.89141 11.2552C2.24895 11.2552 1.75935 11.0888 1.42264 10.7559C1.08979 10.4269 0.923371 9.94508 0.923371 9.31035V2.23353C0.923371 1.60267 1.08399 1.12276 1.40522 0.793782C1.72646 0.464808 2.17154 0.30032 2.74047 0.30032H4.3718C4.5808 0.30032 4.76076 0.315801 4.9117 0.346764C5.06652 0.373856 5.20585 0.420299 5.3297 0.486094C5.45742 0.551889 5.59288 0.640906 5.73608 0.753144L6.04957 1.00858C6.21986 1.14404 6.38048 1.2408 6.53142 1.29886C6.68236 1.35304 6.8662 1.38013 7.08294 1.38013H12.3543C12.9929 1.38013 13.4786 1.54655 13.8114 1.8794C14.1482 2.21224 14.3165 2.69603 14.3165 3.33076V9.31035C14.3165 9.94508 14.154 10.4269 13.8289 10.7559C13.5076 11.0888 13.0567 11.2552 12.4762 11.2552H2.89141ZM2.99591 9.96637H12.244C12.4955 9.96637 12.6891 9.90251 12.8245 9.77479C12.96 9.6432 13.0277 9.44388 13.0277 9.17683V3.47009C13.0277 3.19917 12.96 2.99985 12.8245 2.87213C12.6891 2.74054 12.4955 2.67474 12.244 2.67474H6.73461C6.52562 2.67474 6.34371 2.6612 6.1889 2.6341C6.03796 2.60314 5.89669 2.55476 5.7651 2.48897C5.63738 2.42317 5.50386 2.33416 5.36453 2.22192L5.05104 1.96648C4.88074 1.82715 4.72013 1.73039 4.56918 1.67621C4.42211 1.61815 4.24214 1.58913 4.02928 1.58913H2.99011C2.74241 1.58913 2.55083 1.65686 2.41537 1.79232C2.27991 1.92391 2.21218 2.11355 2.21218 2.36125V9.17683C2.21218 9.44388 2.27797 9.6432 2.40956 9.77479C2.54502 9.90251 2.74047 9.96637 2.99591 9.96637ZM1.74194 4.90984V3.81261H13.5154V4.90984H1.74194Z" fill="#727272"/>
</svg>
