<svg width="16" height="13" viewBox="0 0 16 13" fill="none" xmlns="http://www.w3.org/2000/svg">
<path d="M7.22661 9.38833H6.32985L4.58787 10.919C4.37485 11.1045 4.18759 11.2385 4.02611 11.321C3.86806 11.4035 3.70142 11.4447 3.52619 11.4447C3.27194 11.4447 3.07266 11.3639 2.92835 11.2025C2.78405 11.041 2.71189 10.8194 2.71189 10.5376V9.38833H2.56243C2.08485 9.38833 1.66224 9.28697 1.2946 9.08426C0.930401 8.88154 0.643507 8.59121 0.43392 8.21327C0.227768 7.83532 0.124693 7.38523 0.124693 6.86298V2.77602C0.124693 2.25721 0.22605 1.80883 0.428766 1.43089C0.631482 1.05294 0.920094 0.762611 1.2946 0.559895C1.67255 0.353744 2.12436 0.250668 2.65005 0.250668H9.1129C9.63858 0.250668 10.0904 0.353744 10.4683 0.559895C10.8463 0.762611 11.1349 1.05294 11.3342 1.43089C11.5369 1.80883 11.6383 2.25721 11.6383 2.77602V3.63155H10.3086V2.85848C10.3086 2.43587 10.2021 2.11806 9.98904 1.90503C9.77945 1.68857 9.46163 1.58034 9.03559 1.58034H2.73251C2.30303 1.58034 1.98177 1.68857 1.76875 1.90503C1.55916 2.11806 1.45437 2.43587 1.45437 2.85848V6.78567C1.45437 7.20828 1.55916 7.5261 1.76875 7.73912C1.98177 7.95214 2.30303 8.05865 2.73251 8.05865H3.37158C3.52619 8.05865 3.64301 8.09645 3.72204 8.17204C3.8045 8.24419 3.84573 8.36616 3.84573 8.53796V9.96555L5.45886 8.38334C5.58599 8.25622 5.70109 8.17032 5.80416 8.12565C5.91068 8.08099 6.05326 8.05865 6.23193 8.05865H6.68546L7.22661 9.38833ZM8.41713 10.4449C7.92581 10.4449 7.5032 10.3572 7.1493 10.182C6.79885 10.0068 6.52913 9.75425 6.34016 9.42441C6.15462 9.09456 6.06185 8.69772 6.06185 8.23388V5.07977C6.06185 4.59875 6.15462 4.18644 6.34016 3.84286C6.52913 3.49927 6.79885 3.23643 7.1493 3.05433C7.5032 2.86879 7.92581 2.77602 8.41713 2.77602H13.406C13.9008 2.77602 14.3234 2.86879 14.6738 3.05433C15.0243 3.23643 15.2923 3.49927 15.4778 3.84286C15.6668 4.18644 15.7613 4.59875 15.7613 5.07977V8.23388C15.7613 8.69772 15.6719 9.09456 15.4933 9.42441C15.3146 9.75425 15.0569 10.0068 14.7202 10.182C14.3835 10.3572 13.9781 10.4449 13.5039 10.4449H13.4215V11.5375C13.4215 11.8123 13.3493 12.0322 13.205 12.1971C13.0607 12.3621 12.8631 12.4445 12.6123 12.4445C12.4543 12.4445 12.2859 12.3964 12.1072 12.3002C11.9286 12.2075 11.7448 12.0803 11.5558 11.9188L9.83958 10.4449H8.41713ZM8.60782 9.17703H9.84473C9.98904 9.17703 10.1333 9.20967 10.2777 9.27495C10.422 9.33679 10.556 9.42784 10.6796 9.5481L12.2876 11.0272V9.70271C12.2876 9.53435 12.3357 9.40551 12.4319 9.31618C12.5281 9.22341 12.6518 9.17703 12.803 9.17703H13.2205C13.6293 9.17703 13.9386 9.07051 14.1481 8.85749C14.3577 8.64447 14.4625 8.34039 14.4625 7.94527V5.28076C14.4625 4.8822 14.3577 4.57641 14.1481 4.36339C13.9386 4.15037 13.6293 4.04385 13.2205 4.04385H8.60782C8.19552 4.04385 7.88458 4.15037 7.67499 4.36339C7.46884 4.57641 7.36576 4.8822 7.36576 5.28076V7.94527C7.36576 8.34039 7.46884 8.64447 7.67499 8.85749C7.88458 9.07051 8.19552 9.17703 8.60782 9.17703Z" fill="#727272"/>
</svg>
