<svg width="15" height="14" viewBox="0 0 15 14" fill="none" xmlns="http://www.w3.org/2000/svg">
<path d="M6.66765 13.7395C6.40121 13.7395 6.16961 13.6616 5.97285 13.5059C5.77609 13.3542 5.64902 13.1513 5.59163 12.8972L5.34569 11.8519L5.21042 11.8088L4.30657 12.3622C4.07702 12.5057 3.83722 12.559 3.58717 12.5221C3.34123 12.4893 3.12603 12.3786 2.94157 12.1901L2.07461 11.3292C1.88195 11.1366 1.76922 10.9173 1.73643 10.6713C1.70774 10.4213 1.76513 10.1856 1.90859 9.96425L2.46812 9.06655L2.41893 8.93743L1.38596 8.69148C1.13181 8.62999 0.926859 8.50087 0.771094 8.30411C0.619427 8.10736 0.543594 7.87576 0.543594 7.60932V6.40418C0.543594 6.13774 0.619427 5.90614 0.771094 5.70938C0.92276 5.51263 1.12772 5.38351 1.38596 5.32202L2.41278 5.06993L2.46197 4.93465L1.90245 4.03695C1.76308 3.8156 1.70774 3.58195 1.73643 3.33601C1.76922 3.09006 1.88195 2.86871 2.07461 2.67195L2.93542 1.80499C3.12398 1.62053 3.34123 1.51191 3.58717 1.47911C3.83312 1.44222 4.06882 1.49346 4.29427 1.63283L5.19812 2.19236L5.34569 2.13702L5.59163 1.09175C5.64902 0.841704 5.77609 0.638799 5.97285 0.483033C6.16961 0.327267 6.40121 0.249384 6.66765 0.249384H7.92197C8.18841 0.249384 8.42001 0.327267 8.61677 0.483033C8.81353 0.6347 8.9406 0.837605 8.99799 1.09175L9.23778 2.13702L9.38535 2.19236L10.2954 1.63283C10.5167 1.49346 10.7504 1.44222 10.9963 1.47911C11.2463 1.51191 11.4636 1.62053 11.6481 1.80499L12.515 2.67195C12.7077 2.86871 12.8183 3.09006 12.847 3.33601C12.8798 3.58195 12.8265 3.8156 12.6872 4.03695L12.1215 4.93465L12.1768 5.06993L13.2037 5.32202C13.4578 5.38351 13.6607 5.51263 13.8124 5.70938C13.9681 5.90614 14.046 6.13774 14.046 6.40418V7.60932C14.046 7.87576 13.9681 8.10736 13.8124 8.30411C13.6607 8.50087 13.4578 8.62999 13.2037 8.69148L12.1707 8.93743L12.1154 9.06655L12.681 9.96425C12.8204 10.1856 12.8737 10.4213 12.8409 10.6713C12.8122 10.9173 12.7036 11.1366 12.515 11.3292L11.6481 12.1901C11.4595 12.3786 11.2402 12.4893 10.9901 12.5221C10.7442 12.559 10.5106 12.5057 10.2892 12.3622L9.3792 11.8088L9.23778 11.8519L8.99799 12.8972C8.9406 13.1513 8.81353 13.3542 8.61677 13.5059C8.42001 13.6616 8.18841 13.7395 7.92197 13.7395H6.66765ZM6.8644 12.5098H7.72522C7.82359 12.5098 7.87893 12.4627 7.89123 12.3684L8.26015 10.862C8.4692 10.8169 8.66596 10.7554 8.85042 10.6775C9.03488 10.5996 9.20909 10.5094 9.37305 10.407L10.6889 11.2124C10.7667 11.2657 10.8405 11.2575 10.9102 11.1878L11.5128 10.5853C11.5784 10.5238 11.5845 10.452 11.5312 10.3701L10.7196 9.05425C10.8139 8.89848 10.9 8.72632 10.9779 8.53776C11.0557 8.34511 11.1193 8.1504 11.1685 7.95364L12.681 7.59702C12.7712 7.58062 12.8163 7.52324 12.8163 7.42486V6.58249C12.8163 6.48821 12.7712 6.43288 12.681 6.41648L11.1685 6.04756C11.1234 5.84261 11.0598 5.64585 10.9779 5.45729C10.8959 5.26463 10.8118 5.09452 10.7258 4.94695L11.5374 3.63114C11.5907 3.54916 11.5845 3.47538 11.5189 3.40979L10.9164 2.81337C10.8467 2.75188 10.7708 2.74369 10.6889 2.78878L9.37305 3.5881C9.21319 3.49382 9.03898 3.40569 8.85042 3.32371C8.66596 3.24173 8.4692 3.17819 8.26015 3.1331L7.89123 1.62053C7.87893 1.52625 7.82359 1.47911 7.72522 1.47911H6.8644C6.76603 1.47911 6.70864 1.52625 6.69224 1.62053L6.33562 3.1208C6.13067 3.16999 5.92571 3.23763 5.72076 3.32371C5.5199 3.40569 5.34774 3.49177 5.20427 3.58195L3.89461 2.78263C3.81263 2.73754 3.73679 2.74779 3.66711 2.81337L3.05839 3.40364C2.9969 3.46923 2.99281 3.54506 3.04609 3.63114L3.85772 4.94695C3.77163 5.09452 3.6876 5.26463 3.60562 5.45729C3.52364 5.64585 3.4601 5.84465 3.41501 6.05371L1.90859 6.41648C1.81841 6.43288 1.77332 6.48821 1.77332 6.58249V7.42486C1.77332 7.52324 1.81841 7.58062 1.90859 7.59702L3.42116 7.95364C3.46625 8.1545 3.52774 8.3492 3.60562 8.53776C3.6835 8.72222 3.76958 8.89438 3.86386 9.05425L3.04609 10.3701C3.001 10.4561 3.0092 10.5299 3.07069 10.5914L3.67326 11.194C3.74704 11.2637 3.82082 11.2719 3.89461 11.2186L5.21657 10.407C5.37643 10.5094 5.55064 10.6017 5.7392 10.6836C5.93186 10.7615 6.12862 10.821 6.32947 10.862L6.69224 12.3684C6.70864 12.4627 6.76603 12.5098 6.8644 12.5098ZM7.29481 9.32479C6.8685 9.32479 6.47909 9.22026 6.12657 9.01121C5.77404 8.79806 5.49121 8.51522 5.27805 8.1627C5.069 7.81017 4.96447 7.42076 4.96447 6.99445C4.96447 6.57225 5.069 6.18488 5.27805 5.83236C5.49121 5.47984 5.77404 5.19905 6.12657 4.98999C6.47909 4.78094 6.8685 4.67641 7.29481 4.67641C7.72112 4.67641 8.11053 4.78094 8.46305 4.98999C8.81558 5.19905 9.09636 5.47984 9.30542 5.83236C9.51447 6.18488 9.619 6.57225 9.619 6.99445C9.619 7.42076 9.51447 7.81017 9.30542 8.1627C9.09636 8.51522 8.81558 8.79806 8.46305 9.01121C8.11053 9.22026 7.72112 9.32479 7.29481 9.32479ZM7.29481 8.19344C7.50796 8.19344 7.70267 8.14015 7.87893 8.03357C8.05929 7.9229 8.20276 7.77738 8.30934 7.59702C8.42001 7.41256 8.47535 7.2117 8.47535 6.99445C8.47535 6.7772 8.42001 6.58044 8.30934 6.40418C8.20276 6.22382 8.05929 6.08035 7.87893 5.97378C7.70267 5.8631 7.50796 5.80776 7.29481 5.80776C7.07756 5.80776 6.87875 5.86105 6.69839 5.96763C6.51803 6.0742 6.37251 6.21767 6.26184 6.39803C6.15526 6.57839 6.10197 6.7772 6.10197 6.99445C6.10197 7.2158 6.15526 7.41666 6.26184 7.59702C6.37251 7.77738 6.51803 7.9229 6.69839 8.03357C6.87875 8.14015 7.07756 8.19344 7.29481 8.19344Z" fill="#727272"/>
</svg>
