<svg width="14" height="16" viewBox="0 0 14 16" fill="none" xmlns="http://www.w3.org/2000/svg">
<path d="M2.58139 15.405C1.81475 15.405 1.23505 15.211 0.842265 14.8229C0.449484 14.4349 0.253093 13.8599 0.253093 13.098V6.11312C0.253093 5.35595 0.449484 4.78334 0.842265 4.39529C1.23505 4.00251 1.81475 3.80612 2.58139 3.80612H4.63994V5.20452H2.66657C2.33531 5.20452 2.08213 5.29206 1.90703 5.46716C1.73667 5.63752 1.65149 5.89543 1.65149 6.24089V12.9773C1.65149 13.3228 1.73667 13.5807 1.90703 13.7511C2.08213 13.9262 2.33531 14.0137 2.66657 14.0137H10.6665C10.9931 14.0137 11.2439 13.9262 11.419 13.7511C11.5988 13.5807 11.6887 13.3228 11.6887 12.9773V6.24089C11.6887 5.89543 11.5988 5.63752 11.419 5.46716C11.2439 5.29206 10.9931 5.20452 10.6665 5.20452H8.70026V3.80612H10.7588C11.5254 3.80612 12.1052 4.00251 12.4979 4.39529C12.8907 4.78334 13.0871 5.35595 13.0871 6.11312V13.098C13.0871 13.8552 12.8907 14.4278 12.4979 14.8158C12.1052 15.2086 11.5254 15.405 10.7588 15.405H2.58139ZM6.6701 10.8052C6.58492 10.8052 6.5021 10.791 6.42166 10.7626C6.34121 10.7295 6.25602 10.6703 6.16611 10.5852L3.78103 8.28525C3.66272 8.16221 3.60357 8.02261 3.60357 7.86644C3.60357 7.70081 3.65799 7.56594 3.76683 7.46183C3.88041 7.35772 4.02001 7.30566 4.18564 7.30566C4.36547 7.30566 4.51217 7.36955 4.62574 7.49732L5.61953 8.55499L6.08093 9.07318L6.00994 8.01551V0.661502C6.00994 0.486407 6.07383 0.334973 6.2016 0.207201C6.33411 0.0794285 6.49027 0.0155423 6.6701 0.0155423C6.84993 0.0155423 7.00373 0.0794285 7.1315 0.207201C7.26401 0.334973 7.33026 0.486407 7.33026 0.661502V8.01551L7.25927 9.07318L7.71358 8.55499L8.70736 7.49732C8.82567 7.36955 8.97237 7.30566 9.14746 7.30566C9.30836 7.30566 9.4456 7.35772 9.55917 7.46183C9.67748 7.56594 9.73664 7.70081 9.73664 7.86644C9.73664 8.02261 9.67512 8.16221 9.55208 8.28525L7.16699 10.5852C7.08181 10.6703 6.999 10.7295 6.91855 10.7626C6.8381 10.791 6.75528 10.8052 6.6701 10.8052Z" fill="#727272"/>
</svg>
