<svg width="14" height="13" viewBox="0 0 14 13" fill="none" xmlns="http://www.w3.org/2000/svg">
<path d="M3.97062 13.0015C3.72467 13.0015 3.53202 12.9216 3.39265 12.7617C3.25738 12.6018 3.18974 12.3846 3.18974 12.1099V10.5974H2.85772C2.26335 10.5974 1.75301 10.4826 1.3267 10.2531C0.904495 10.0235 0.578616 9.69558 0.349067 9.26927C0.123616 8.83887 0.010891 8.31828 0.010891 7.70752V2.93616C0.010891 2.3254 0.123616 1.80686 0.349067 1.38056C0.574517 0.95015 0.900396 0.620173 1.3267 0.390623C1.75711 0.161074 2.28179 0.0462988 2.90076 0.0462988H10.9001C11.515 0.0462988 12.0376 0.161074 12.4681 0.390623C12.8985 0.620173 13.2264 0.95015 13.4518 1.38056C13.6773 1.80686 13.79 2.3254 13.79 2.93616V7.70752C13.79 8.31828 13.6773 8.83887 13.4518 9.26927C13.2264 9.69558 12.8985 10.0235 12.4681 10.2531C12.0376 10.4826 11.515 10.5974 10.9001 10.5974H7.10028L4.99745 12.4604C4.78839 12.6449 4.60803 12.7802 4.45636 12.8662C4.3047 12.9564 4.14278 13.0015 3.97062 13.0015ZM4.2719 11.6427L6.22103 9.71197C6.3522 9.5808 6.47312 9.49472 6.5838 9.45373C6.69857 9.40864 6.85024 9.3861 7.0388 9.3861H10.8633C11.4453 9.3861 11.8757 9.24263 12.1545 8.95569C12.4373 8.66465 12.5787 8.23425 12.5787 7.66447V2.97306C12.5787 2.40738 12.4373 1.98107 12.1545 1.69414C11.8757 1.4031 11.4453 1.25758 10.8633 1.25758H2.9315C2.35353 1.25758 1.92312 1.4031 1.64028 1.69414C1.36154 1.98107 1.22217 2.40738 1.22217 2.97306V7.66447C1.22217 8.23425 1.36154 8.66465 1.64028 8.95569C1.92312 9.24263 2.35353 9.3861 2.9315 9.3861H3.77386C3.94603 9.3861 4.07105 9.42504 4.14893 9.50292C4.23091 9.5767 4.2719 9.70583 4.2719 9.89029V11.6427ZM4.41947 7.7567C4.10794 7.7567 3.86404 7.67472 3.68778 7.51076C3.51562 7.3427 3.42954 7.10495 3.42954 6.79752V3.87691C3.42954 3.56947 3.51972 3.33173 3.70008 3.16366C3.88044 2.9915 4.12024 2.90542 4.41947 2.90542H7.56143C7.87296 2.90542 8.11071 2.9915 8.27468 3.16366C8.44274 3.33173 8.52677 3.56947 8.52677 3.87691V6.78522C8.52677 7.08855 8.43864 7.3263 8.26238 7.49846C8.09022 7.67062 7.84837 7.7567 7.53684 7.7567H4.41947ZM8.87109 6.20724V4.46103L9.9717 3.52029C10.0332 3.4752 10.0947 3.4383 10.1562 3.40961C10.2176 3.37682 10.2791 3.36042 10.3406 3.36042C10.4595 3.36042 10.5558 3.39936 10.6296 3.47724C10.7034 3.55103 10.7403 3.65351 10.7403 3.78468V6.87745C10.7403 7.01272 10.7034 7.11929 10.6296 7.19718C10.5558 7.27096 10.4595 7.30785 10.3406 7.30785C10.2791 7.30785 10.2176 7.29351 10.1562 7.26481C10.0947 7.23202 10.0332 7.19103 9.9717 7.14184L8.87109 6.20724Z" fill="#727272"/>
</svg>
