<svg width="16" height="16" viewBox="0 0 16 16" fill="none" xmlns="http://www.w3.org/2000/svg">
<path d="M12.4474 12.9479L7.8255 8.43699C7.75155 8.36797 7.69978 8.29649 7.6702 8.22254C7.64062 8.14859 7.62583 8.05985 7.62583 7.95632V1.3304H8.80903V7.04673L13.6601 4.26622L14.2591 5.29412L9.28971 8.1338L13.3422 12.1197L12.4474 12.9479ZM8.21004 15.44C7.16488 15.44 6.18135 15.2404 5.25944 14.8411C4.33753 14.4467 3.52408 13.897 2.81909 13.192C2.11903 12.487 1.56934 11.6735 1.17001 10.7516C0.770677 9.82971 0.571012 8.84618 0.571012 7.80102C0.571012 6.75586 0.770677 5.77233 1.17001 4.85042C1.56934 3.92851 2.11903 3.11753 2.81909 2.41747C3.52408 1.71248 4.33506 1.16032 5.25204 0.76099C6.17395 0.36166 7.15748 0.161996 8.20264 0.161996C9.25273 0.161996 10.2387 0.36166 11.1606 0.76099C12.0825 1.16032 12.896 1.71248 13.601 2.41747C14.306 3.11753 14.8581 3.92851 15.2575 4.85042C15.6568 5.77233 15.8565 6.75586 15.8565 7.80102C15.8565 8.84618 15.6568 9.82971 15.2575 10.7516C14.8581 11.6735 14.306 12.487 13.601 13.192C12.896 13.897 12.0825 14.4467 11.1606 14.8411C10.2387 15.2404 9.2552 15.44 8.21004 15.44ZM8.21004 13.9315C9.06293 13.9315 9.85912 13.7737 10.5986 13.4582C11.3381 13.1427 11.9889 12.7039 12.5509 12.1419C13.1129 11.5799 13.5517 10.9291 13.8672 10.1896C14.1827 9.4501 14.3405 8.65391 14.3405 7.80102C14.3405 6.95306 14.1827 6.15933 13.8672 5.41983C13.5517 4.67541 13.1129 4.02218 12.5509 3.46016C11.9889 2.89814 11.3357 2.45937 10.5912 2.14385C9.85173 1.82833 9.05553 1.67057 8.20264 1.67057C7.35468 1.67057 6.55849 1.82833 5.81406 2.14385C5.07456 2.45937 4.42627 2.89814 3.86918 3.46016C3.31209 4.02218 2.87578 4.67541 2.56026 5.41983C2.24475 6.15933 2.08699 6.95306 2.08699 7.80102C2.08699 8.65391 2.24475 9.4501 2.56026 10.1896C2.87578 10.9291 3.31209 11.5799 3.86918 12.1419C4.4312 12.7039 5.08196 13.1427 5.82146 13.4582C6.56589 13.7737 7.36208 13.9315 8.21004 13.9315Z" fill="#727272"/>
</svg>
