<svg width="19" height="19" viewBox="0 0 19 19" fill="none" xmlns="http://www.w3.org/2000/svg">
<path d="M11.4534 15.204H3.81596C3.66686 15.204 3.52388 15.1448 3.41845 15.0394C3.31302 14.9339 3.2538 14.791 3.2538 14.6419V3.39862C3.2538 3.24952 3.31302 3.10654 3.41845 3.00111C3.52388 2.89568 3.66686 2.83646 3.81596 2.83646H15.0592C15.2083 2.83646 15.3513 2.89568 15.4567 3.00111C15.5621 3.10654 15.6214 3.24952 15.6214 3.39862V11.036C15.6214 11.1099 15.6068 11.183 15.5786 11.2512C15.5503 11.3194 15.5089 11.3813 15.4567 11.4335L11.8509 15.0394C11.7987 15.0916 11.7367 15.133 11.6685 15.1612C11.6003 15.1895 11.5272 15.204 11.4534 15.204V15.204Z" stroke="#727272" stroke-width="1.34919" stroke-linecap="round" stroke-linejoin="round"/>
<path d="M15.5708 11.2683H11.6862V15.1529" stroke="#727272" stroke-width="1.34919" stroke-linecap="round" stroke-linejoin="round"/>
</svg>
