<svg width="19" height="19" viewBox="0 0 19 19" fill="none" xmlns="http://www.w3.org/2000/svg">
<path d="M15.0592 2.92293H3.81596C3.50548 2.92293 3.2538 3.17462 3.2538 3.48509V14.7283C3.2538 15.0388 3.50548 15.2905 3.81596 15.2905H15.0592C15.3697 15.2905 15.6214 15.0388 15.6214 14.7283V3.48509C15.6214 3.17462 15.3697 2.92293 15.0592 2.92293Z" stroke="#727272" stroke-width="1.34919" stroke-linecap="round" stroke-linejoin="round"/>
<path d="M12.8106 1.79861V4.04726" stroke="#727272" stroke-width="1.34919" stroke-linecap="round" stroke-linejoin="round"/>
<path d="M6.06461 1.79861V4.04726" stroke="#727272" stroke-width="1.34919" stroke-linecap="round" stroke-linejoin="round"/>
<path d="M3.2538 6.2959H15.6214" stroke="#727272" stroke-width="1.34919" stroke-linecap="round" stroke-linejoin="round"/>
<path d="M6.90785 9.10649H8.87542L7.75109 10.5119C7.93596 10.5119 8.11798 10.5575 8.28102 10.6446C8.44407 10.7317 8.58311 10.8577 8.68584 11.0114C8.78857 11.1651 8.85182 11.3418 8.86998 11.5258C8.88814 11.7097 8.86066 11.8953 8.78997 12.0662C8.71927 12.237 8.60755 12.3877 8.46469 12.5051C8.32183 12.6224 8.15224 12.7027 7.97094 12.7388C7.78964 12.775 7.60223 12.7659 7.42529 12.7123C7.24836 12.6587 7.08736 12.5624 6.95656 12.4317" stroke="#727272" stroke-width="1.34919" stroke-linecap="round" stroke-linejoin="round"/>
<path d="M10.5619 9.94973L11.6862 9.10649V12.7605" stroke="#727272" stroke-width="1.34919" stroke-linecap="round" stroke-linejoin="round"/>
</svg>
