<svg width="21" height="10" viewBox="0 0 21 10" fill="none" xmlns="http://www.w3.org/2000/svg">
<path d="M7.48495 9.66007C6.52317 9.66007 6.04229 9.3123 6.04229 8.61676C6.04229 8.23072 6.15377 7.84801 6.37674 7.46862C6.59972 7.08591 6.91088 6.74147 7.31023 6.4353C7.71291 6.1258 8.18714 5.87787 8.73292 5.69151C9.2787 5.50514 9.87441 5.41196 10.52 5.41196C11.169 5.41196 11.7647 5.50514 12.3071 5.69151C12.8529 5.87787 13.3271 6.1258 13.7298 6.4353C14.1325 6.74147 14.4453 7.08591 14.6683 7.46862C14.8913 7.84801 15.0028 8.23072 15.0028 8.61676C15.0028 9.3123 14.5219 9.66007 13.5601 9.66007H7.48495ZM7.55983 8.44205H13.4852C13.5252 8.44205 13.5518 8.43373 13.5651 8.41709C13.5817 8.40045 13.59 8.37715 13.59 8.3472C13.59 8.20077 13.5202 8.03105 13.3804 7.83803C13.2439 7.64501 13.0443 7.45698 12.7814 7.27394C12.5185 7.08758 12.1956 6.93449 11.8129 6.81468C11.4335 6.69488 11.0026 6.63498 10.52 6.63498C10.0375 6.63498 9.60651 6.69488 9.22712 6.81468C8.84774 6.93449 8.52659 7.08758 8.26368 7.27394C8.00078 7.45698 7.79944 7.64501 7.65966 7.83803C7.52322 8.03105 7.455 8.20077 7.455 8.3472C7.455 8.37715 7.46165 8.40045 7.47496 8.41709C7.4916 8.43373 7.51989 8.44205 7.55983 8.44205ZM10.52 4.94771C10.0974 4.94771 9.71466 4.83955 9.37189 4.62324C9.02911 4.40359 8.75622 4.10907 8.55321 3.73967C8.35021 3.36694 8.24871 2.95428 8.24871 2.50168C8.24538 2.05906 8.34688 1.65472 8.55321 1.28864C8.75955 0.922572 9.0341 0.629713 9.37688 0.410069C9.72298 0.190425 10.104 0.0806035 10.52 0.0806035C10.9393 0.0806035 11.3204 0.190425 11.6632 0.410069C12.0093 0.626385 12.2838 0.91758 12.4868 1.28365C12.6932 1.64973 12.7963 2.05407 12.7963 2.49669C12.7963 2.95261 12.6948 3.36694 12.4918 3.73967C12.2888 4.10907 12.0159 4.40359 11.6732 4.62324C11.3304 4.83955 10.946 4.94771 10.52 4.94771ZM10.52 3.73468C10.713 3.73468 10.8878 3.68143 11.0442 3.57494C11.2039 3.46512 11.3304 3.31702 11.4236 3.13066C11.5167 2.94097 11.5633 2.72964 11.5633 2.49669C11.5633 2.27371 11.5151 2.07237 11.4186 1.89267C11.3254 1.70963 11.1989 1.56486 11.0392 1.45837C10.8828 1.35188 10.7097 1.29863 10.52 1.29863C10.337 1.29863 10.1656 1.35188 10.0059 1.45837C9.84612 1.56486 9.71799 1.70963 9.62148 1.89267C9.52497 2.07237 9.47838 2.27371 9.48171 2.49669C9.48171 2.73297 9.5283 2.94429 9.62148 3.13066C9.71799 3.31702 9.84445 3.46512 10.0009 3.57494C10.1606 3.68143 10.3337 3.73468 10.52 3.73468ZM1.96889 9.66506C1.5529 9.66506 1.24007 9.56855 1.03041 9.37553C0.820752 9.18584 0.715922 8.91295 0.715922 8.55686C0.715922 8.1442 0.817424 7.74984 1.02043 7.37378C1.22343 6.99439 1.50298 6.65827 1.85907 6.36541C2.21849 6.07255 2.63448 5.84126 3.10704 5.67154C3.57961 5.49849 4.08712 5.41196 4.62958 5.41196C4.84256 5.41196 5.07053 5.43359 5.31347 5.47685C5.55973 5.51679 5.80267 5.57336 6.04229 5.64658C6.2819 5.71647 6.50154 5.79966 6.70122 5.89617C6.49156 6.02264 6.31351 6.16407 6.16708 6.32049C6.02065 6.47357 5.90085 6.6433 5.80767 6.82966C5.71448 6.78973 5.59801 6.75312 5.45823 6.71984C5.31846 6.68656 5.17369 6.65994 5.02394 6.63997C4.87751 6.61667 4.74605 6.60502 4.62958 6.60502C4.27016 6.60502 3.93404 6.65661 3.62121 6.75977C3.30838 6.85961 3.03383 6.99606 2.79755 7.16911C2.56126 7.33884 2.37823 7.52853 2.24844 7.73819C2.11865 7.94785 2.05375 8.16084 2.05375 8.37715C2.05375 8.40045 2.05874 8.42208 2.06873 8.44205C2.08204 8.45869 2.107 8.46701 2.14361 8.46701H5.20864C5.18867 8.67667 5.22195 8.89964 5.30848 9.13592C5.39833 9.3722 5.53644 9.54859 5.7228 9.66506H1.96889ZM4.63457 5.03757C4.26184 5.03757 3.92405 4.94106 3.62121 4.74804C3.3217 4.55502 3.08209 4.29544 2.90238 3.9693C2.726 3.64316 2.63614 3.28042 2.63281 2.88106C2.63281 2.49169 2.72267 2.1356 2.90238 1.81279C3.08209 1.48998 3.32336 1.23373 3.6262 1.04404C3.93237 0.851021 4.26849 0.754511 4.63457 0.754511C4.99731 0.754511 5.32844 0.851021 5.62796 1.04404C5.9308 1.23373 6.17208 1.48998 6.35178 1.81279C6.53482 2.13228 6.62634 2.4867 6.62634 2.87607C6.62634 3.27542 6.53648 3.63983 6.35678 3.9693C6.18039 4.29544 5.94078 4.55502 5.63794 4.74804C5.3351 4.94106 5.00064 5.03757 4.63457 5.03757ZM4.63457 3.83951C4.77767 3.83951 4.90912 3.79791 5.02893 3.71471C5.15206 3.63151 5.25024 3.5167 5.32345 3.37027C5.39667 3.22384 5.43327 3.05911 5.43327 2.87607C5.43327 2.70302 5.395 2.54661 5.31846 2.40683C5.24524 2.26706 5.14707 2.15557 5.02394 2.07237C4.90413 1.98918 4.77434 1.94758 4.63457 1.94758C4.49147 1.94758 4.35835 1.98918 4.23522 2.07237C4.11208 2.15557 4.01391 2.26872 3.94069 2.41182C3.86748 2.5516 3.83087 2.70801 3.83087 2.88106C3.83087 3.0641 3.86748 3.22883 3.94069 3.37526C4.01391 3.51836 4.11042 3.63151 4.23022 3.71471C4.35336 3.79791 4.48814 3.83951 4.63457 3.83951ZM19.0762 9.66506H15.3222C15.5119 9.54859 15.65 9.3722 15.7366 9.13592C15.8264 8.89964 15.8614 8.67667 15.8414 8.46701H18.9014C18.9414 8.46701 18.968 8.45869 18.9813 8.44205C18.9946 8.42208 19.0013 8.40045 19.0013 8.37715C19.0013 8.16084 18.9347 7.94785 18.8016 7.73819C18.6685 7.52853 18.4838 7.33884 18.2475 7.16911C18.0145 6.99606 17.7416 6.85961 17.4288 6.75977C17.116 6.65661 16.7782 6.60502 16.4155 6.60502C16.3023 6.60502 16.1709 6.61667 16.0211 6.63997C15.8747 6.65994 15.7316 6.68656 15.5918 6.71984C15.452 6.75312 15.3372 6.78973 15.2474 6.82966C15.1509 6.6433 15.0294 6.47357 14.883 6.32049C14.7365 6.16407 14.5585 6.02264 14.3488 5.89617C14.5485 5.79966 14.7681 5.71647 15.0077 5.64658C15.2474 5.57336 15.4886 5.51679 15.7316 5.47685C15.9778 5.43359 16.2058 5.41196 16.4155 5.41196C16.9612 5.41196 17.4704 5.49849 17.943 5.67154C18.4156 5.84126 18.8299 6.07255 19.186 6.36541C19.5454 6.65827 19.8266 6.99439 20.0296 7.37378C20.2326 7.74984 20.3341 8.1442 20.3341 8.55686C20.3341 8.91295 20.2293 9.18584 20.0196 9.37553C19.81 9.56855 19.4955 9.66506 19.0762 9.66506ZM16.4155 5.03757C16.0494 5.03757 15.7149 4.94106 15.4121 4.74804C15.1093 4.55502 14.868 4.29544 14.6883 3.9693C14.5119 3.63983 14.4237 3.27542 14.4237 2.87607C14.4237 2.4867 14.5136 2.13228 14.6933 1.81279C14.873 1.48998 15.1142 1.23373 15.4171 1.04404C15.7199 0.851021 16.0527 0.754511 16.4155 0.754511C16.7815 0.754511 17.116 0.851021 17.4188 1.04404C17.725 1.23373 17.9679 1.48998 18.1477 1.81279C18.3274 2.1356 18.4172 2.49169 18.4172 2.88106C18.4139 3.28042 18.3224 3.64316 18.1427 3.9693C17.963 4.29544 17.7233 4.55502 17.4238 4.74804C17.1243 4.94106 16.7882 5.03757 16.4155 5.03757ZM16.4155 3.83951C16.5619 3.83951 16.695 3.79791 16.8148 3.71471C16.938 3.63151 17.0361 3.51836 17.1093 3.37526C17.1826 3.22883 17.2192 3.0641 17.2192 2.88106C17.2192 2.70801 17.1826 2.5516 17.1093 2.41182C17.0361 2.26872 16.938 2.15557 16.8148 2.07237C16.6917 1.98918 16.5586 1.94758 16.4155 1.94758C16.2757 1.94758 16.1442 1.98918 16.0211 2.07237C15.9013 2.15557 15.8031 2.26706 15.7266 2.40683C15.6534 2.54661 15.6168 2.70302 15.6168 2.87607C15.6168 3.05911 15.6534 3.22384 15.7266 3.37027C15.7998 3.5167 15.8963 3.63151 16.0161 3.71471C16.1392 3.79791 16.2724 3.83951 16.4155 3.83951Z" fill="#727272"/>
</svg>
