<svg width="22" height="21" viewBox="0 0 22 21" fill="none" xmlns="http://www.w3.org/2000/svg">
<path d="M17.365 0.298019C19.7767 0.298202 21.7322 2.25347 21.7322 4.66521V16.4758C21.7321 18.8874 19.7767 20.8428 17.365 20.8429H4.41286C2.00104 20.8429 0.0457259 18.8876 0.0456696 16.4758V4.66521C0.0456696 2.25336 2.00101 0.298019 4.41286 0.298019H17.365ZM7.67946 3.72575C5.87057 3.72575 4.40407 5.19226 4.40407 7.00114V14.1398C4.40407 15.9487 5.87057 17.4152 7.67946 17.4152H14.0974C15.9063 17.4152 17.3728 15.9487 17.3728 14.1398V7.00114C17.3728 5.19226 15.9063 3.72575 14.0974 3.72575H7.67946Z" fill="#FF4B00"/>
</svg>
