<svg width="20" height="20" viewBox="0 0 20 20" fill="none" xmlns="http://www.w3.org/2000/svg">
<path d="M0.675044 7.99043C0.675044 6.91261 0.877135 5.90216 1.28132 4.95907C1.69191 4.00956 2.25648 3.17554 2.97503 2.45699C3.69357 1.73204 4.52439 1.16746 5.46748 0.763284C6.41698 0.359103 7.43064 0.157012 8.50846 0.157012C9.59269 0.157012 10.6063 0.359103 11.5494 0.763284C12.4989 1.16746 13.333 1.73204 14.0515 2.45699C14.7701 3.17554 15.3314 4.00956 15.7356 4.95907C16.1462 5.90216 16.3515 6.91261 16.3515 7.99043C16.3515 8.83728 16.22 9.64244 15.9569 10.4059C15.7003 11.1693 15.3442 11.8654 14.8887 12.4942L19.277 16.9017C19.4117 17.03 19.5112 17.1807 19.5753 17.354C19.6459 17.5272 19.6812 17.71 19.6812 17.9025C19.6812 18.1719 19.6202 18.4157 19.4983 18.6339C19.3764 18.852 19.2096 19.022 18.9979 19.1439C18.7862 19.2722 18.5424 19.3364 18.2665 19.3364C18.0741 19.3364 17.888 19.3011 17.7084 19.2305C17.5352 19.1664 17.378 19.0637 17.2368 18.9226L12.8197 14.5054C12.2038 14.916 11.5302 15.24 10.7988 15.4774C10.0739 15.7084 9.3104 15.8238 8.50846 15.8238C7.43064 15.8238 6.41698 15.6217 5.46748 15.2176C4.52439 14.8134 3.69357 14.252 2.97503 13.5335C2.25648 12.8149 1.69191 11.9841 1.28132 11.041C0.877135 10.0915 0.675044 9.07466 0.675044 7.99043ZM2.72482 7.99043C2.72482 8.79237 2.87238 9.54299 3.16749 10.2423C3.46903 10.9416 3.88604 11.5575 4.41853 12.09C4.95102 12.6161 5.56692 13.0299 6.26622 13.3314C6.96551 13.6329 7.71293 13.7837 8.50846 13.7837C9.3104 13.7837 10.061 13.6329 10.7603 13.3314C11.4596 13.0299 12.0723 12.6161 12.5984 12.09C13.1309 11.5575 13.5479 10.9416 13.8494 10.2423C14.151 9.54299 14.3017 8.79237 14.3017 7.99043C14.3017 7.19489 14.151 6.44748 13.8494 5.74818C13.5479 5.04889 13.1309 4.43299 12.5984 3.9005C12.0723 3.36801 11.4596 2.9542 10.7603 2.65909C10.061 2.35755 9.3104 2.20679 8.50846 2.20679C7.71293 2.20679 6.96551 2.35755 6.26622 2.65909C5.56692 2.9542 4.95102 3.36801 4.41853 3.9005C3.88604 4.43299 3.46903 5.04889 3.16749 5.74818C2.87238 6.44748 2.72482 7.19489 2.72482 7.99043Z" fill="black"/>
</svg>
